<?xml version="1.0" encoding="UTF-8"?>
<svg id="Layer_3" data-name="Layer 3" xmlns="http://www.w3.org/2000/svg" viewBox="0 0 217 217">
  <defs>
    <style>
      .cls-1 {
        fill: #fff;
      }
    </style>
  </defs>
  <path class="cls-1" d="m108.5,215.4C49.56,215.4,1.6,167.44,1.6,108.5S49.56,1.6,108.5,1.6s106.9,47.95,106.9,106.9-47.95,106.9-106.9,106.9Zm0-211.87C50.62,3.53,3.53,50.62,3.53,108.5s47.09,104.97,104.97,104.97,104.97-47.09,104.97-104.97S166.38,3.53,108.5,3.53Z"/>
  <g>
    <path class="cls-1" d="m86.62,105.53l.18.13c1.41,1,3.69,1.18,5.34-.43.8-.78,1.24-1.8,1.24-2.86,0-1.36-.71-2.32-.93-2.58l-.38-.4c-4.39-4.39-6.8-10.22-6.8-16.42s2.42-12.04,6.8-16.42c9.06-9.06,23.79-9.06,32.85,0,4.39,4.39,6.8,10.22,6.8,16.42s-2.42,12.04-6.8,16.42l-20.46,20.46-.15.23c-.17.26-.71,1.19-.71,2.42,0,1.02.36,1.96,1.05,2.73,1.5,1.68,3.8,1.59,5.3.64l.24-.16,20.52-20.52c5.94-5.93,9.2-13.83,9.2-22.22s-3.27-16.28-9.2-22.22c-12.25-12.25-32.19-12.25-44.44,0-5.93,5.94-9.2,13.83-9.2,22.22s3.27,16.28,9.2,22.22l.34.34Z"/>
    <path class="cls-1" d="m158.87,176.02c-1.18.8-.84,2.02.15,3.47.97,1.42,1.9,2.24,3.14,1.4,1.2-.82.84-2.02-.13-3.45-.99-1.45-1.98-2.22-3.15-1.42Z"/>
    <path class="cls-1" d="m113.91,130.32l-.78.5c-1.71,1.1-3.62,1.63-5.51,1.63-2.75,0-5.44-1.13-7.37-3.3-1.13-1.27-1.9-2.78-2.28-4.41l-1.74,1.74c-3.27,3.27-5.08,7.63-5.08,12.26s1.8,8.98,5.08,12.26c6.76,6.76,17.76,6.76,24.52,0,3.27-3.27,5.08-7.63,5.08-12.26s-1.8-8.98-5.08-12.26l-.75-.8c-.16-.2-.38-.48-.61-.84l-5.48,5.48Z"/>
    <polygon class="cls-1" points="91.18 193.62 93.21 193.97 92.78 190.45 91.18 193.62"/>
    <path class="cls-1" d="m121.05,190.52l-.77.11.82,5.67.77-.11c1.86-.27,2.43-1.04,2.12-3.2-.3-2.09-1.07-2.74-2.94-2.47Z"/>
    <path class="cls-1" d="m133.25,33.04c2.37.78,3.63-.96,4.55-3.77.94-2.85.96-5.01-1.35-5.77-2.32-.77-3.63.96-4.57,3.81-.93,2.8-1.07,4.92,1.36,5.73Z"/>
    <path class="cls-1" d="m120.76,95.23c3.27-3.27,5.08-7.63,5.08-12.26s-1.8-8.98-5.08-12.26c-6.76-6.76-17.76-6.76-24.52,0-3.27,3.27-5.08,7.63-5.08,12.26s1.8,8.98,5.08,12.26l.74.8c.17.2.38.49.62.84l5.48-5.48.78-.5c4.19-2.69,9.61-1.99,12.87,1.67,1.13,1.27,1.9,2.79,2.28,4.41l1.74-1.74Z"/>
    <path class="cls-1" d="m130.38,116.18l-.18-.13c-1.41-1-3.69-1.18-5.34.43-.8.78-1.24,1.8-1.24,2.86,0,1.36.71,2.32.93,2.58l.38.4c4.39,4.39,6.8,10.22,6.8,16.42s-2.42,12.04-6.8,16.42c-9.06,9.06-23.79,9.06-32.85,0-4.39-4.39-6.8-10.22-6.8-16.42s2.42-12.04,6.8-16.42l20.46-20.46.15-.23c.17-.26.71-1.19.71-2.42h0c0-1.02-.36-1.96-1.05-2.73-1.5-1.68-3.8-1.59-5.3-.64l-.24.16-20.52,20.52c-5.94,5.93-9.2,13.82-9.2,22.22s3.27,16.28,9.2,22.22c12.25,12.25,32.19,12.25,44.44,0,5.93-5.94,9.2-13.83,9.2-22.22s-3.27-16.28-9.2-22.22l-.34-.34Z"/>
    <path class="cls-1" d="m83.77,110.71c-.13-.08-.26-.16-.39-.25l-.58-.42-.69-.69c-5.9-5.9-9.58-13.45-10.61-21.6-9.33,2.55-16.22,11.09-16.22,21.22s7.2,19.06,16.86,21.39c1.55-6.76,4.95-12.97,9.98-18l1.65-1.65Z"/>
    <path class="cls-1" d="m108.5,7.29C52.6,7.29,7.29,52.6,7.29,108.5s45.32,101.21,101.21,101.21,101.21-45.32,101.21-101.21S164.4,7.29,108.5,7.29Zm91.74,100.25l-2.88.18-.43-6.84-3.48.22.37,5.8-2.88.18-.37-5.8-3.45.22.44,6.91-2.88.18-.66-10.48,15.57-.98.66,10.41Zm-4.2-27.43c.74,2.28.29,4.56-1.16,5.98l-2.44-2c.71-.81,1.15-1.85.7-3.21-.72-2.22-2.48-3-5.88-1.9-3.71,1.2-4.43,2.72-3.74,4.85.62,1.91,2.16,2.4,3.7,1.91l-.93-2.88,2.74-.89,2.01,6.19c-.57.26-1.3.57-1.58.66-3.62,1.17-7.38.28-8.79-4.06-1.37-4.21.25-7.6,5.45-9.29,5.36-1.74,8.49.23,9.92,4.64Zm-12.74-25.4l5.57,8.82-2.44,1.54-3.66-5.79-2.95,1.86,3.11,4.92-2.44,1.54-3.11-4.92-2.93,1.85,3.7,5.85-2.44,1.54-5.61-8.88,13.19-8.34Zm-13.36-14.93l2.55,2.51-8.93,9.05,4.22,4.17-2.03,2.05-6.77-6.68,10.96-11.1Zm-16.09-11.64l3.02,1.91-6.8,10.74,5.01,3.17-1.54,2.44-8.03-5.08,8.33-13.18Zm-25.45-1.98c1.43-4.32,4.2-7.09,9.02-5.5,4.75,1.58,5.32,5.46,3.89,9.77-1.42,4.29-4.29,7.01-8.98,5.46-4.73-1.57-5.34-5.44-3.92-9.74Zm-20.59-2.33c.32-5.09,2.88-7.86,7.48-7.57,2.74.17,4.37,1.52,5.31,3.43l-2.8,1.53c-.45-.93-1.27-1.88-2.56-1.96-2.3-.15-3.54,1.51-3.75,4.83-.2,3.25.81,5.07,3.12,5.21,1.29.08,2.22-.76,2.78-1.63l2.59,1.87c-1.18,1.78-2.96,2.91-5.7,2.74-4.61-.29-6.79-3.39-6.47-8.45Zm-32.05-1.59l2,5.8,5.61-1.93-2-5.8,3.36-1.16,5.09,14.75-3.36,1.16-2.14-6.22-5.61,1.93,2.14,6.22-3.38,1.17-5.09-14.75,3.38-1.17Zm-13.23,6.15l1.6,2.4-3.34,2.23,7.05,10.58-2.98,1.98-7.05-10.58-3.34,2.23-1.6-2.4,9.66-6.44Zm-36.12,38.3c1.06-2.15,2.97-3.47,5-3.48l.36,3.13c-1.07.09-2.11.53-2.74,1.81-1.03,2.09-.32,3.88,2.89,5.46,3.5,1.72,5.07,1.13,6.06-.87.89-1.8.12-3.23-1.32-3.94l-1.33,2.71-2.59-1.27,2.87-5.84c.59.21,1.32.5,1.59.63,3.42,1.68,5.49,4.94,3.47,9.04-1.96,3.97-5.48,5.28-10.38,2.86-5.05-2.49-5.93-6.08-3.88-10.24Zm-6.35,17.24l15.14,3.77-.86,3.47-15.14-3.77.86-3.47Zm-2.8,14.24l2.88.13-.31,6.85,3.48.16.26-5.81,2.88.13-.26,5.81,3.46.16.31-6.92,2.88.13-.47,10.49-15.59-.7.47-10.42Zm28.17,71.97c-.25.24-.57.36-.88.36s-.66-.13-.91-.39c-12.65-13.08-21.55-30.02-25.06-47.72-.14-.69.31-1.36,1-1.5.68-.14,1.36.31,1.5,1,3.42,17.22,12.08,33.72,24.39,46.44.49.51.48,1.31-.03,1.8Zm1.1-10.97c-.24.19-.52.29-.8.29-.37,0-.73-.16-.99-.47-8.69-10.62-14.83-23.27-17.74-36.57-.15-.69.28-1.36.97-1.51.68-.15,1.36.28,1.51.97,2.83,12.91,8.78,25.19,17.22,35.51.44.54.36,1.35-.18,1.79Zm-10.72-107.42l2.38-2.67,4.58,4.08,3.95-4.43-4.58-4.08,2.36-2.65,11.65,10.38-2.36,2.65-4.91-4.38-3.94,4.43,4.91,4.37-2.38,2.67-11.65-10.38Zm23.01,129.49c-1.43,2.09-3.27,2.18-5.02.98-1.76-1.21-2.33-2.95-.9-5.04l3.16-4.61,1.72,1.18-3.12,4.55c-.72,1.05-.78,1.85.13,2.47.91.62,1.62.28,2.34-.78l3.12-4.55,1.72,1.18-3.16,4.61Zm10.29,2.29c-.03-.6-.24-1.3-.91-1.64-1.2-.61-2.24-.01-3.12,1.71-.86,1.69-.74,2.9.46,3.51.67.34,1.36.11,1.87-.23l.95,1.6c-1.04.68-2.26.87-3.68.14-2.4-1.22-2.85-3.39-1.5-6.02,1.35-2.65,3.36-3.54,5.76-2.32,1.43.73,1.98,1.83,2.05,3.07l-1.86.17Zm12.7,5.75l.97.65c1.53,1.03,1.73,2.06,1.42,3.09-.53,1.79-2.23,2.31-4.03,1.78-1.91-.57-2.56-1.73-2.73-2.53l1.67-.74c.16.68.48,1.27,1.56,1.59.72.22,1.25,0,1.41-.55.13-.43,0-.77-.54-1.15l-.96-.65c-1.48-1-1.66-2.05-1.35-3.1.41-1.38,1.63-2.46,3.89-1.79,1.56.47,2.2,1.33,2.49,2.16l-1.66.7c-.18-.52-.58-.96-1.33-1.18-.64-.19-1.13.07-1.29.6-.12.4-.03.76.47,1.11Zm11.86,8.41l-.25-1.97-3.03-.52-.88,1.77-2.18-.38,4.63-8.44,2.34.4,1.54,9.5-2.18-.38Zm14.28,1.16l-2.11-.09-3.07-5.93-.24,5.78-2.11-.09.41-9.09,2.19.1,3.01,5.82.25-5.68,2.07.09-.4,9.09Zm14.3-1l-2.97.43-1.3-9,2.97-.43c3.08-.44,4.73.75,5.18,3.85.45,3.1-.8,4.71-3.88,5.15Zm9.33-1.75l-2.2-8.82,2.02-.51,2.2,8.82-2.02.51Zm7.07-1.93l-3.03-8.58,5.74-2.03.56,1.59-3.77,1.33.68,1.92,3.2-1.13.56,1.59-3.2,1.13.67,1.9,3.81-1.34.56,1.59-5.78,2.04Zm13.74-5.5c-2.31,1.15-4.41.51-5.83-2.34-1.47-2.94-.6-4.92,1.82-6.13,1.25-.62,2.61-.56,3.55.15l-.94,1.58c-.53-.34-1.17-.5-1.91-.13-1.22.61-1.52,1.69-.59,3.56,1.01,2.04,1.95,2.32,3.12,1.74,1.05-.52,1.2-1.46.78-2.3l-1.58.79-.75-1.51,3.4-1.69c.2.31.44.7.52.86.99,1.99.8,4.23-1.58,5.42Zm10.76-6.32c-2.4,1.64-4.42.55-5.9-1.63-1.5-2.19-1.8-4.46.64-6.13,2.41-1.65,4.41-.53,5.91,1.66,1.49,2.18,1.73,4.48-.65,6.1Zm-17.34-44.35c0,.25.02.51.02.76,0,9.97-3.88,19.34-10.93,26.39-7.04,7.04-16.41,10.91-26.39,10.91s-19.35-3.88-26.39-10.91c-7.05-7.05-10.93-16.42-10.93-26.39,0-.26.01-.51.02-.76-13.44-2.81-23.56-14.75-23.56-29.01s10.18-26.27,23.68-29.03c.71-8.82,4.47-17.02,10.8-23.35h0c14.55-14.55,38.22-14.55,52.77,0,6.33,6.33,10.09,14.53,10.8,23.35,13.49,2.77,23.68,14.73,23.68,29.03s-10.12,26.2-23.56,29.01Zm24.52,19.39c8.44-10.31,14.4-22.59,17.22-35.51.15-.69.83-1.12,1.51-.97.69.15,1.12.83.97,1.51-2.91,13.3-9.04,25.95-17.74,36.57-.25.31-.62.47-.99.47-.28,0-.57-.09-.81-.29-.54-.44-.62-1.25-.18-1.79Zm28.14-34.99c-3.51,17.69-12.41,34.64-25.06,47.72-.25.26-.58.39-.91.39s-.64-.12-.88-.36c-.51-.49-.52-1.29-.03-1.8,12.31-12.73,20.97-29.22,24.39-46.44.14-.69.81-1.13,1.5-1,.69.14,1.14.81,1,1.5Z"/>
    <path class="cls-1" d="m145.5,87.75c-1.04,8.16-4.71,15.7-10.62,21.61l-1.65,1.65c.13.08.26.16.39.25l.57.41.69.69c5.02,5.02,8.43,11.23,9.97,17.99,9.66-2.32,16.86-11.03,16.86-21.39s-6.88-18.68-16.22-21.22Z"/>
  </g>
</svg>